<svg width="29" height="24" viewBox="0 0 29 24" fill="none" xmlns="http://www.w3.org/2000/svg">
<path d="M16.0078 19.5752C14.9343 19.5752 14.1 20.4564 14.1 21.5299C14.1 22.6033 14.9812 23.4846 16.0078 23.4846C17.0343 23.4846 17.9156 22.6033 17.9156 21.5299C17.9156 20.4564 17.0343 19.5752 16.0078 19.5752ZM16.0078 22.5049C15.4687 22.5049 15.0796 22.0643 15.0796 21.5252C15.0796 20.9861 15.5203 20.5455 16.0078 20.5455C16.4953 20.5455 16.9359 20.9861 16.9359 21.5252C16.9359 22.0643 16.4953 22.5049 16.0078 22.5049Z" fill="white"/>
<path d="M5.59677 19.5752C4.52334 19.5752 3.68896 20.4564 3.68896 21.5299C3.68896 22.6033 4.57021 23.4846 5.59677 23.4846C6.67021 23.4846 7.50459 22.6033 7.50459 21.5299C7.50459 20.4564 6.62334 19.5752 5.59677 19.5752ZM5.59677 22.5049C5.05771 22.5049 4.66865 22.0643 4.66865 21.5252C4.66865 20.9861 5.10927 20.5455 5.59677 20.5455C6.13584 20.5455 6.5249 20.9861 6.5249 21.5252C6.5249 22.0689 6.08896 22.5049 5.59677 22.5049Z" fill="white"/>
<path d="M20.6015 0.515625L19.8421 3.49687H0.660889L4.19995 13.9828C3.01401 14.1562 2.12808 15.1594 2.12808 16.4484C2.12808 17.8641 3.20151 18.9891 4.57026 18.9891H17.864V18.0609H4.57026C3.74058 18.0609 3.10308 17.3766 3.10308 16.4953C3.10308 15.6141 3.78745 14.9297 4.57026 14.9297H17.864H17.9109L21.3796 1.49062H23.3343V0.515625H20.6015ZM17.1796 13.9547H5.20776L2.02964 4.47188H19.5749L17.1796 13.9547Z" fill="white"/>
<path d="M7.84688 6.76855H6.86719V12.2904H7.84688V6.76855Z" fill="white"/>
<path d="M11.3203 6.76855H10.3406V12.2904H11.3203V6.76855Z" fill="white"/>
<path d="M14.789 6.76855H13.8093V12.2904H14.789V6.76855Z" fill="white"/>
<path fill-rule="evenodd" clip-rule="evenodd" d="M23.7895 12V15.7895H20V17.0526H23.7895V20.8421H25.0526V17.0526H28.8421V15.7895H25.0526V12H23.7895Z" fill="white"/>
</svg>
